<?xml version="1.0" encoding="UTF-8"?>
<svg id="_0" xmlns="http://www.w3.org/2000/svg" viewBox="0 0 20 20">
	<style>
		path { fill: #000000; }
		@media (prefers-color-scheme: dark) {
		path { fill: #ffffff; }
		}
	</style>
	<path d="M10,0C4.5,0,0,4.5,0,10s4.5,10,10,10,10-4.5,10-10S15.5,0,10,0ZM10,2.5c0-.3.2-.5.5-.5s0,0,0,0c3.6.2,6.6,2.9,7.3,6.4,0,.3-.1.5-.4.6,0,0,0,0-.1,0h-.3c-1.1,0-2-.9-2-2v-1h-2v1c0,1.1-.9,2-2,2h-.5c-.3,0-.5-.2-.5-.5V2.5ZM2.2,11.6c-.8-3.9,1.4-7.8,5.2-9.1.3,0,.5,0,.6.3,0,0,0,.1,0,.2v8.1c0,1.6-1.3,2.9-3,2.9s-2.6-1-2.9-2.4ZM8.4,17.8c-.9-.2-1.8-.5-2.6-1.1-.2-.1-.3-.5-.2-.7,0-.1.2-.2.3-.2,2.2-.4,3.8-2.2,4-4.4,0-.3.2-.5.5-.5h.5c1.1,0,2,.9,2,2v1h2v-1c0-1.1.9-2,2-2h.3c.3,0,.5.2.5.5s0,0,0,0c-.9,4.3-5.1,7.1-9.4,6.2Z" />
</svg>